<mxfile host="app.diagrams.net" modified="2023-03-14T04:49:37.991Z" agent="5.0 (Windows NT 10.0; Win64; x64) AppleWebKit/537.36 (KHTML, like Gecko) Chrome/111.0.0.0 Safari/537.36" etag="5zJnLnh1J4A6TOGr2RfL" version="21.0.6" type="github" pages="3">
  <diagram id="97NRxQQ0gE6GKJNCYA0g" name="PÃ¡gina-1">
    <mxGraphModel dx="1050" dy="581" grid="1" gridSize="10" guides="1" tooltips="1" connect="1" arrows="1" fold="1" page="1" pageScale="1" pageWidth="827" pageHeight="1169" math="0" shadow="0">
      <root>
        <mxCell id="0" />
        <mxCell id="1" parent="0" />
        <mxCell id="Wug1muBPwoIi46KmIhlu-1" value="Display Parking&lt;br style=&quot;font-size: 12px;&quot;&gt;Space Availiability" style="ellipse;whiteSpace=wrap;html=1;strokeWidth=1;fontStyle=1;fontSize=12;strokeColor=#000000;" parent="1" vertex="1">
          <mxGeometry x="260" y="600" width="120" height="80" as="geometry" />
        </mxCell>
        <mxCell id="Wug1muBPwoIi46KmIhlu-3" value="Display" style="shape=umlActor;verticalLabelPosition=bottom;verticalAlign=top;html=1;outlineConnect=0;strokeWidth=1;fontStyle=1;fontSize=12;strokeColor=#000000;" parent="1" vertex="1">
          <mxGeometry x="80" y="610" width="30" height="60" as="geometry" />
        </mxCell>
        <mxCell id="Wug1muBPwoIi46KmIhlu-7" value="" style="endArrow=none;html=1;rounded=0;entryX=0;entryY=0.5;entryDx=0;entryDy=0;strokeWidth=1;fontStyle=1;fontSize=12;strokeColor=#000000;" parent="1" target="Wug1muBPwoIi46KmIhlu-1" edge="1">
          <mxGeometry width="50" height="50" relative="1" as="geometry">
            <mxPoint x="120" y="640" as="sourcePoint" />
            <mxPoint x="460" y="830" as="targetPoint" />
          </mxGeometry>
        </mxCell>
        <mxCell id="Wug1muBPwoIi46KmIhlu-8" value="Car /Driver" style="shape=umlActor;verticalLabelPosition=bottom;verticalAlign=top;html=1;outlineConnect=0;strokeWidth=1;fontStyle=1;fontSize=12;strokeColor=#000000;" parent="1" vertex="1">
          <mxGeometry x="80" y="50" width="30" height="60" as="geometry" />
        </mxCell>
        <mxCell id="Wug1muBPwoIi46KmIhlu-9" value="Car Enter" style="ellipse;whiteSpace=wrap;html=1;strokeWidth=1;fontStyle=1;fontSize=12;strokeColor=#000000;" parent="1" vertex="1">
          <mxGeometry x="260" y="40" width="120" height="80" as="geometry" />
        </mxCell>
        <mxCell id="Wug1muBPwoIi46KmIhlu-10" value="Car Exit" style="ellipse;whiteSpace=wrap;html=1;strokeWidth=1;fontStyle=1;fontSize=12;strokeColor=#000000;" parent="1" vertex="1">
          <mxGeometry x="260" y="160" width="120" height="80" as="geometry" />
        </mxCell>
        <mxCell id="Wug1muBPwoIi46KmIhlu-11" value="Entry acces control" style="ellipse;whiteSpace=wrap;html=1;strokeWidth=1;fontStyle=1;fontSize=12;strokeColor=#000000;" parent="1" vertex="1">
          <mxGeometry x="550" y="40" width="120" height="80" as="geometry" />
        </mxCell>
        <mxCell id="Wug1muBPwoIi46KmIhlu-12" value="Space availiabiliry sensor" style="ellipse;whiteSpace=wrap;html=1;strokeWidth=1;fontStyle=1;fontSize=12;strokeColor=#000000;" parent="1" vertex="1">
          <mxGeometry x="550" y="160" width="120" height="80" as="geometry" />
        </mxCell>
        <mxCell id="Wug1muBPwoIi46KmIhlu-13" value="" style="endArrow=classic;html=1;rounded=0;entryX=0;entryY=0.5;entryDx=0;entryDy=0;exitX=1;exitY=0.5;exitDx=0;exitDy=0;strokeWidth=1;fontStyle=1;fontSize=12;strokeColor=#000000;" parent="1" source="Wug1muBPwoIi46KmIhlu-9" target="Wug1muBPwoIi46KmIhlu-11" edge="1">
          <mxGeometry width="50" height="50" relative="1" as="geometry">
            <mxPoint x="370" y="100" as="sourcePoint" />
            <mxPoint x="420" y="50" as="targetPoint" />
          </mxGeometry>
        </mxCell>
        <mxCell id="Wug1muBPwoIi46KmIhlu-14" value="" style="endArrow=classic;html=1;rounded=0;exitX=1;exitY=1;exitDx=0;exitDy=0;entryX=0;entryY=0.5;entryDx=0;entryDy=0;strokeWidth=1;fontStyle=1;fontSize=12;strokeColor=#000000;" parent="1" source="Wug1muBPwoIi46KmIhlu-9" target="Wug1muBPwoIi46KmIhlu-12" edge="1">
          <mxGeometry width="50" height="50" relative="1" as="geometry">
            <mxPoint x="390" y="310" as="sourcePoint" />
            <mxPoint x="540" y="200" as="targetPoint" />
          </mxGeometry>
        </mxCell>
        <mxCell id="Wug1muBPwoIi46KmIhlu-15" value="" style="endArrow=none;html=1;rounded=0;entryX=0;entryY=0.5;entryDx=0;entryDy=0;strokeWidth=1;fontStyle=1;fontSize=12;strokeColor=#000000;" parent="1" target="Wug1muBPwoIi46KmIhlu-9" edge="1">
          <mxGeometry width="50" height="50" relative="1" as="geometry">
            <mxPoint x="120" y="80" as="sourcePoint" />
            <mxPoint x="440" y="260" as="targetPoint" />
          </mxGeometry>
        </mxCell>
        <mxCell id="Wug1muBPwoIi46KmIhlu-17" value="" style="endArrow=none;html=1;rounded=0;exitX=0;exitY=0.5;exitDx=0;exitDy=0;strokeWidth=1;fontStyle=1;fontSize=12;strokeColor=#000000;" parent="1" source="Wug1muBPwoIi46KmIhlu-10" edge="1">
          <mxGeometry width="50" height="50" relative="1" as="geometry">
            <mxPoint x="390" y="310" as="sourcePoint" />
            <mxPoint x="120" y="100" as="targetPoint" />
          </mxGeometry>
        </mxCell>
        <mxCell id="Wug1muBPwoIi46KmIhlu-18" value="Manager (Carparlot)" style="shape=umlActor;verticalLabelPosition=bottom;verticalAlign=top;html=1;outlineConnect=0;strokeWidth=1;fontStyle=1;fontSize=12;strokeColor=#000000;" parent="1" vertex="1">
          <mxGeometry x="80" y="380" width="30" height="60" as="geometry" />
        </mxCell>
        <mxCell id="Wug1muBPwoIi46KmIhlu-19" value="System configuration" style="ellipse;whiteSpace=wrap;html=1;strokeWidth=1;fontStyle=1;fontSize=12;strokeColor=#000000;" parent="1" vertex="1">
          <mxGeometry x="260" y="320" width="120" height="80" as="geometry" />
        </mxCell>
        <mxCell id="Wug1muBPwoIi46KmIhlu-20" value="Get report" style="ellipse;whiteSpace=wrap;html=1;strokeWidth=1;fontStyle=1;fontSize=12;strokeColor=#000000;" parent="1" vertex="1">
          <mxGeometry x="260" y="440" width="120" height="80" as="geometry" />
        </mxCell>
        <mxCell id="Wug1muBPwoIi46KmIhlu-25" value="" style="endArrow=none;html=1;rounded=0;entryX=0.003;entryY=0.598;entryDx=0;entryDy=0;entryPerimeter=0;strokeWidth=1;fontStyle=1;fontSize=12;strokeColor=#000000;" parent="1" target="Wug1muBPwoIi46KmIhlu-19" edge="1">
          <mxGeometry width="50" height="50" relative="1" as="geometry">
            <mxPoint x="120" y="400" as="sourcePoint" />
            <mxPoint x="170" y="270" as="targetPoint" />
          </mxGeometry>
        </mxCell>
        <mxCell id="Wug1muBPwoIi46KmIhlu-26" value="" style="endArrow=none;html=1;rounded=0;entryX=0;entryY=0.5;entryDx=0;entryDy=0;strokeWidth=1;fontStyle=1;fontSize=12;strokeColor=#000000;" parent="1" target="Wug1muBPwoIi46KmIhlu-20" edge="1">
          <mxGeometry width="50" height="50" relative="1" as="geometry">
            <mxPoint x="120" y="420" as="sourcePoint" />
            <mxPoint x="230" y="420" as="targetPoint" />
          </mxGeometry>
        </mxCell>
      </root>
    </mxGraphModel>
  </diagram>
  <diagram id="efaB-_sYP06g4I1OZhj-" name="Activity diagram">
    <mxGraphModel dx="1235" dy="684" grid="1" gridSize="10" guides="1" tooltips="1" connect="1" arrows="1" fold="1" page="1" pageScale="1" pageWidth="827" pageHeight="1169" math="0" shadow="0">
      <root>
        <mxCell id="0" />
        <mxCell id="1" parent="0" />
        <mxCell id="Bkw7AMrOs5-hZipr7IaT-9" style="edgeStyle=orthogonalEdgeStyle;rounded=0;orthogonalLoop=1;jettySize=auto;html=1;entryX=0.5;entryY=0;entryDx=0;entryDy=0;fillColor=#fff2cc;strokeColor=#d6b656;fontStyle=1;fontSize=11;fontColor=#000066;" edge="1" parent="1" source="Bkw7AMrOs5-hZipr7IaT-3" target="Bkw7AMrOs5-hZipr7IaT-4">
          <mxGeometry relative="1" as="geometry" />
        </mxCell>
        <mxCell id="Bkw7AMrOs5-hZipr7IaT-3" value="Write letter" style="html=1;whiteSpace=wrap;fillColor=#fff2cc;strokeColor=#d6b656;fontStyle=1;fontSize=11;fontColor=#000066;" vertex="1" parent="1">
          <mxGeometry x="494" y="170" width="110" height="50" as="geometry" />
        </mxCell>
        <mxCell id="Bkw7AMrOs5-hZipr7IaT-25" style="edgeStyle=orthogonalEdgeStyle;rounded=0;orthogonalLoop=1;jettySize=auto;html=1;entryX=1;entryY=0.5;entryDx=0;entryDy=0;fillColor=#fff2cc;strokeColor=#d6b656;fontStyle=1;fontSize=11;fontColor=#000066;" edge="1" parent="1" source="Bkw7AMrOs5-hZipr7IaT-4" target="Bkw7AMrOs5-hZipr7IaT-24">
          <mxGeometry relative="1" as="geometry" />
        </mxCell>
        <mxCell id="Bkw7AMrOs5-hZipr7IaT-4" value="Send the letter" style="html=1;whiteSpace=wrap;fillColor=#fff2cc;strokeColor=#d6b656;fontStyle=1;fontSize=11;fontColor=#000066;" vertex="1" parent="1">
          <mxGeometry x="504" y="547" width="90" height="50" as="geometry" />
        </mxCell>
        <mxCell id="Bkw7AMrOs5-hZipr7IaT-19" style="edgeStyle=orthogonalEdgeStyle;rounded=0;orthogonalLoop=1;jettySize=auto;html=1;entryX=1;entryY=0.5;entryDx=0;entryDy=0;fillColor=#fff2cc;strokeColor=#d6b656;fontStyle=1;fontSize=11;fontColor=#000066;" edge="1" parent="1" source="Bkw7AMrOs5-hZipr7IaT-10" target="Bkw7AMrOs5-hZipr7IaT-17">
          <mxGeometry relative="1" as="geometry" />
        </mxCell>
        <mxCell id="12Uk9mebkhzkXJdGpRZE-1" style="edgeStyle=orthogonalEdgeStyle;rounded=0;orthogonalLoop=1;jettySize=auto;html=1;exitX=1;exitY=0.5;exitDx=0;exitDy=0;fillColor=#fff2cc;strokeColor=#d6b656;" edge="1" parent="1" source="Bkw7AMrOs5-hZipr7IaT-10" target="Bkw7AMrOs5-hZipr7IaT-16">
          <mxGeometry relative="1" as="geometry" />
        </mxCell>
        <mxCell id="Bkw7AMrOs5-hZipr7IaT-10" value="State&amp;nbsp; letter box?" style="shape=rhombus;perimeter=rhombusPerimeter;whiteSpace=wrap;html=1;align=center;fillColor=#fff2cc;strokeColor=#d6b656;fontStyle=1;fontSize=11;fontColor=#000066;" vertex="1" parent="1">
          <mxGeometry x="295" y="340" width="120" height="70" as="geometry" />
        </mxCell>
        <mxCell id="Bkw7AMrOs5-hZipr7IaT-15" style="edgeStyle=orthogonalEdgeStyle;rounded=0;orthogonalLoop=1;jettySize=auto;html=1;entryX=0.5;entryY=0;entryDx=0;entryDy=0;fillColor=#fff2cc;strokeColor=#d6b656;fontStyle=1;fontSize=11;fontColor=#000066;" edge="1" parent="1" source="Bkw7AMrOs5-hZipr7IaT-12" target="Bkw7AMrOs5-hZipr7IaT-10">
          <mxGeometry relative="1" as="geometry">
            <mxPoint x="355" y="300" as="sourcePoint" />
          </mxGeometry>
        </mxCell>
        <mxCell id="Bkw7AMrOs5-hZipr7IaT-12" value="Check letter box" style="html=1;whiteSpace=wrap;fillColor=#fff2cc;strokeColor=#d6b656;fontStyle=1;fontSize=11;fontColor=#000066;" vertex="1" parent="1">
          <mxGeometry x="300" y="150" width="110" height="50" as="geometry" />
        </mxCell>
        <mxCell id="12Uk9mebkhzkXJdGpRZE-2" value="" style="edgeStyle=orthogonalEdgeStyle;rounded=0;orthogonalLoop=1;jettySize=auto;html=1;" edge="1" parent="1" source="Bkw7AMrOs5-hZipr7IaT-16" target="Bkw7AMrOs5-hZipr7IaT-3">
          <mxGeometry relative="1" as="geometry" />
        </mxCell>
        <mxCell id="Bkw7AMrOs5-hZipr7IaT-16" value="Empty letter box" style="html=1;whiteSpace=wrap;fillColor=#fff2cc;strokeColor=#d6b656;fontStyle=1;fontSize=11;fontColor=#000066;" vertex="1" parent="1">
          <mxGeometry x="494" y="350" width="110" height="50" as="geometry" />
        </mxCell>
        <mxCell id="Bkw7AMrOs5-hZipr7IaT-21" style="edgeStyle=orthogonalEdgeStyle;rounded=0;orthogonalLoop=1;jettySize=auto;html=1;fillColor=#fff2cc;strokeColor=#d6b656;fontStyle=1;fontSize=11;fontColor=#000066;" edge="1" parent="1" source="Bkw7AMrOs5-hZipr7IaT-17" target="Bkw7AMrOs5-hZipr7IaT-18">
          <mxGeometry relative="1" as="geometry" />
        </mxCell>
        <mxCell id="Bkw7AMrOs5-hZipr7IaT-17" value="New letter" style="html=1;whiteSpace=wrap;fillColor=#fff2cc;strokeColor=#d6b656;fontStyle=1;fontSize=11;fontColor=#000066;" vertex="1" parent="1">
          <mxGeometry x="130" y="350" width="110" height="50" as="geometry" />
        </mxCell>
        <mxCell id="Bkw7AMrOs5-hZipr7IaT-23" style="edgeStyle=orthogonalEdgeStyle;rounded=0;orthogonalLoop=1;jettySize=auto;html=1;fillColor=#fff2cc;strokeColor=#d6b656;fontStyle=1;fontSize=11;fontColor=#000066;" edge="1" parent="1" source="Bkw7AMrOs5-hZipr7IaT-18">
          <mxGeometry relative="1" as="geometry">
            <mxPoint x="350" y="110" as="targetPoint" />
            <Array as="points">
              <mxPoint x="110" y="375" />
              <mxPoint x="110" y="110" />
            </Array>
          </mxGeometry>
        </mxCell>
        <mxCell id="Bkw7AMrOs5-hZipr7IaT-18" value="Read letter" style="html=1;whiteSpace=wrap;fillColor=#fff2cc;strokeColor=#d6b656;fontStyle=1;fontSize=11;fontColor=#000066;" vertex="1" parent="1">
          <mxGeometry x="130" y="450" width="110" height="50" as="geometry" />
        </mxCell>
        <mxCell id="Bkw7AMrOs5-hZipr7IaT-27" value="" style="edgeStyle=orthogonalEdgeStyle;rounded=0;orthogonalLoop=1;jettySize=auto;html=1;fillColor=#fff2cc;strokeColor=#d6b656;fontStyle=1;fontSize=11;fontColor=#000066;" edge="1" parent="1" source="Bkw7AMrOs5-hZipr7IaT-24">
          <mxGeometry relative="1" as="geometry">
            <mxPoint x="359" y="672" as="targetPoint" />
          </mxGeometry>
        </mxCell>
        <mxCell id="Bkw7AMrOs5-hZipr7IaT-24" value="Put in the letter box" style="html=1;whiteSpace=wrap;fillColor=#fff2cc;strokeColor=#d6b656;fontStyle=1;fontSize=11;fontColor=#000066;" vertex="1" parent="1">
          <mxGeometry x="277" y="547" width="164" height="50" as="geometry" />
        </mxCell>
        <mxCell id="Bkw7AMrOs5-hZipr7IaT-29" value="" style="ellipse;html=1;shape=endState;fillColor=#000000;strokeColor=#ff0000;" vertex="1" parent="1">
          <mxGeometry x="344" y="677" width="30" height="30" as="geometry" />
        </mxCell>
        <mxCell id="Bkw7AMrOs5-hZipr7IaT-30" value="" style="ellipse;html=1;shape=startState;fillColor=#000000;strokeColor=#ff0000;" vertex="1" parent="1">
          <mxGeometry x="340" y="60" width="30" height="30" as="geometry" />
        </mxCell>
        <mxCell id="Bkw7AMrOs5-hZipr7IaT-31" value="" style="edgeStyle=orthogonalEdgeStyle;html=1;verticalAlign=bottom;endArrow=open;endSize=8;strokeColor=#ff0000;rounded=0;" edge="1" source="Bkw7AMrOs5-hZipr7IaT-30" parent="1">
          <mxGeometry relative="1" as="geometry">
            <mxPoint x="355" y="150" as="targetPoint" />
          </mxGeometry>
        </mxCell>
        <mxCell id="Bkw7AMrOs5-hZipr7IaT-32" value="Activity Diagram" style="text;align=center;fontStyle=1;verticalAlign=middle;spacingLeft=3;spacingRight=3;strokeColor=none;rotatable=0;points=[[0,0.5],[1,0.5]];portConstraint=eastwest;html=1;fontSize=14;" vertex="1" parent="1">
          <mxGeometry x="224" y="10" width="270" height="26" as="geometry" />
        </mxCell>
      </root>
    </mxGraphModel>
  </diagram>
  <diagram id="8hbVS3jlBRcT2zcbr7vt" name="Communication Diagram">
    <mxGraphModel dx="1050" dy="581" grid="1" gridSize="10" guides="1" tooltips="1" connect="1" arrows="1" fold="1" page="1" pageScale="1" pageWidth="827" pageHeight="1169" math="0" shadow="0">
      <root>
        <mxCell id="0" />
        <mxCell id="1" parent="0" />
      </root>
    </mxGraphModel>
  </diagram>
</mxfile>
